<?xml version="1.0" standalone="no"?><!DOCTYPE svg PUBLIC "-//W3C//DTD SVG 1.1//EN" "http://www.w3.org/Graphics/SVG/1.1/DTD/svg11.dtd"><svg t="1674007605730" class="icon" viewBox="0 0 1024 1024" version="1.1" xmlns="http://www.w3.org/2000/svg" p-id="1996" xmlns:xlink="http://www.w3.org/1999/xlink" width="200" height="200"><path d="M686.86 749.34c-6.12 0-11.92-3.66-14.35-9.68l-30.95-76.58c-3.2-7.92 0.64-16.93 8.56-20.14 7.92-3.2 16.93 0.62 20.14 8.54l30.94 76.58c3.21 7.92-0.62 16.94-8.55 20.14-1.9 0.78-3.86 1.14-5.79 1.14z" fill="#434A54" p-id="1997"></path><path d="M855.2 726.57c-2.7-5.03-7.93-8.17-13.64-8.17H565.93l-72.05-27.33c-7.99-3.03-16.92 1-19.94 8.97a15.398 15.398 0 0 0-0.1 10.68l-25.51 9.08-16.9-6.47c-7.98-3.05-16.92 0.94-19.98 8.92-3.06 7.99 0.94 16.93 8.92 19.98l137.2 52.51c1.77 0.68 3.64 1.02 5.53 1.02h247.52c5.17 0 10.01-2.58 12.87-6.89l30.94-46.41a15.48 15.48 0 0 0 0.77-15.89z" fill="#8CC153" p-id="1998"></path><path d="M509.52 644.24a15.474 15.474 0 0 0-14.86-0.96l-133.53 62.41a15.474 15.474 0 0 0 1.99 28.8c1.17 0.35 28.82 8.78 59.99 8.78 25.32 0 46.06-5.52 61.66-16.39 21.18-14.76 31.91-38.18 31.91-69.59 0-5.29-2.7-10.21-7.16-13.05z" fill="#434A54" p-id="1999"></path><path d="M791.52 306.23c-28.9-34.45-81.87-54.6-121.22-65.44-51.18-14.11-113.11-21.87-174.36-21.87-59.03 0-115.01 7.01-161.91 20.3-53.65 15.2-93.32 37.67-117.9 66.81-41.19 48.83-64.66 133.67-69.77 252.16-3.75 86.83 4 158.72 4.33 161.74 0.48 4.27 2.71 8.17 6.16 10.73a15.445 15.445 0 0 0 12.04 2.79l68.17-12.7a15.5 15.5 0 0 0 5.84-2.39c30.48-20.61 68.22-44.31 76.23-46.78 10.37-2.28 137.78-21.59 222.29-34.22l239.22 11.41c2.15 0.1 4.3-0.24 6.3-1.01l60.17-23.21c5.71-2.2 9.58-7.55 9.89-13.64 0.45-8.73 10.04-214.68-65.48-304.68z" fill="#A0D468" p-id="2000"></path><path d="M510.48 637.35c-84.5 12.64-211.91 31.95-222.28 34.22-8.02 2.47-45.75 26.17-76.24 46.78a15.294 15.294 0 0 1-5.83 2.39l-50.01 9.32c0.24 0.2 0.47 0.41 0.73 0.6a15.445 15.445 0 0 0 12.04 2.79l68.17-12.7a15.5 15.5 0 0 0 5.84-2.39c30.48-20.61 68.22-44.31 76.23-46.78 10.06-2.21 130.46-20.48 214.8-33.1l-23.45-1.13zM791.52 306.23c-28.9-34.45-81.87-54.6-121.22-65.44-51.18-14.11-113.11-21.87-174.36-21.87-5.09 0-10.13 0.07-15.17 0.17 56.04 1.21 111.8 8.81 158.59 21.7 39.36 10.85 92.33 30.99 121.23 65.44 75.52 90 65.93 295.94 65.47 304.67-0.3 6.1-4.18 11.45-9.88 13.64l-59.81 23.06 24.27 1.16c2.15 0.1 4.3-0.24 6.3-1.01l60.17-23.21c5.71-2.2 9.58-7.55 9.89-13.64 0.45-8.72 10.04-214.67-65.48-304.67z" fill="#FFFFFF" opacity=".2" p-id="2001"></path><path d="M884.98 647.34l-30.55-45.81a15.444 15.444 0 0 0-12.87-6.89H297.4c-30.14 0-63.85 19.85-100.21 59.01-25.74 27.72-43.4 55.07-44.14 56.23a15.464 15.464 0 0 0-0.96 14.99c13.21 27.84 53.79 41.96 120.61 41.96 24.78 0 43.74-2.02 44.53-2.11 0.5-0.06 1-0.13 1.49-0.24 30.94-6.44 52.46-26.62 73.27-46.12 25.44-23.86 49.48-46.37 91.05-46.37H872.51c8.55 0 15.48-6.92 15.48-15.47 0-3.44-1.12-6.61-3.01-9.18z" fill="#656D78" p-id="2002"></path><path d="M300.1 687.46m-15.47 0a15.47 15.47 0 1 0 30.94 0 15.47 15.47 0 1 0-30.94 0Z" fill="#434A54" p-id="2003"></path></svg>